<svg width="2056" height="666" viewBox="0 0 2056 666" fill="none" xmlns="http://www.w3.org/2000/svg">
<rect width="2056" height="666" fill="#F5F5F5"/>
<path d="M0 60C0 26.8629 26.8629 0 60 0H378.902C400.495 0 418 17.5048 418 39.098V39.098V40.8058C418 70.9903 395.576 96.4757 365.637 100.318L330.863 104.78C300.924 108.622 278.5 134.108 278.5 164.292V192.5C278.5 225.637 305.363 252.5 338.5 252.5H384C417.137 252.5 444 225.637 444 192.5V60C444 26.8629 470.863 0 504 0H2000.25C2031.04 0 2056 24.9601 2056 55.75V55.75C2056 86.5399 2031.04 111.5 2000.25 111.5H1528C1494.86 111.5 1468 138.363 1468 171.5V192.5C1468 225.637 1494.86 252.5 1528 252.5H1996C2029.14 252.5 2056 279.363 2056 312.5V416.048V443.935C2056 477.072 2029.14 503.935 1996 503.935H1277.84C1265.5 503.935 1253.46 507.738 1243.37 514.826L1043.52 655.109C1033.42 662.197 1021.38 666 1009.04 666H60C26.8629 666 0 639.137 0 606V60Z" fill="#0E243B"/>
</svg>
